<svg width="93" height="79" viewBox="0 0 93 79" fill="none" xmlns="http://www.w3.org/2000/svg">
<g clip-path="url(#clip0_2_973)">
<path d="M0 28C0 25.7909 1.79086 24 4 24H51C53.2091 24 55 25.7909 55 28V75C55 77.2091 53.2091 79 51 79H4C1.79086 79 0 77.2091 0 75V28Z" fill="#35B8BE"/>
<g opacity="0.2">
<path opacity="0.2" fill-rule="evenodd" clip-rule="evenodd" d="M-0.717149 -28.2939C0.923638 -24.8601 1.2112 -17.6773 1.89661 -11.7098C2.53427 -6.15846 3.18087 -0.750968 3.12671 5.16887C3.06417 12.1429 3.26938 20.7421 1.56857 24.9157C-0.144531 29.1214 -2.56341 24.1155 -4.70617 24.3969C-6.64485 24.6499 -8.73989 30.0547 -10.3477 26.476C-11.9726 22.857 -11.1967 14.3557 -11.9084 8.35885C-12.5648 2.8286 -14.502 -1.19193 -14.3309 -7.08976C-14.1572 -13.0756 -12.4486 -17.099 -11.0569 -21.0058C-9.69833 -24.8173 -8.20552 -27.9558 -6.45529 -29.1887C-4.53811 -30.5408 -2.37385 -31.7599 -0.717149 -28.2939Z" stroke="white"/>
<path opacity="0.2" fill-rule="evenodd" clip-rule="evenodd" d="M0.295392 -35.2286C2.3357 -30.9588 2.69389 -22.0288 3.54681 -14.6166C4.34054 -7.71412 5.14377 -0.995699 5.07872 6.36422C5.00194 15.0276 5.25823 25.7133 3.14422 30.8998C1.01485 36.1248 -1.99283 29.8986 -4.65656 30.2414C-7.06679 30.5549 -9.67051 37.2686 -11.67 32.8182C-13.6908 28.3201 -12.7273 17.7555 -13.6129 10.303C-14.4295 3.42802 -16.8386 -1.57038 -16.6281 -8.8973C-16.4132 -16.3342 -14.2894 -21.3336 -12.5598 -26.1855C-10.8716 -30.9201 -9.01609 -34.819 -6.8401 -36.349C-4.45556 -38.0274 -1.76501 -39.5406 0.295392 -35.2286Z" stroke="white"/>
<path opacity="0.2" fill-rule="evenodd" clip-rule="evenodd" d="M1.23685 -41.6647C3.64819 -36.623 4.07256 -26.0741 5.08098 -17.3117C6.01933 -9.15886 6.96913 -1.22041 6.89264 7.47143C6.80274 17.706 7.1065 30.3332 4.60888 36.4556C2.09312 42.6248 -1.46179 35.2685 -4.60907 35.6746C-7.45679 36.0413 -10.5332 43.9687 -12.8962 38.7079C-15.2844 33.3912 -14.1467 20.9153 -15.1939 12.1107C-16.1593 3.98996 -19.0065 -1.91983 -18.7569 -10.575C-18.5037 -19.3631 -15.9943 -25.2672 -13.951 -30.9955C-11.9564 -36.5871 -9.76315 -41.1909 -7.19323 -42.9976C-4.37846 -44.9739 -1.19934 -46.7586 1.23685 -41.6647Z" stroke="white"/>
<path opacity="0.2" fill-rule="evenodd" clip-rule="evenodd" d="M2.21172 -48.3498C5.00806 -42.4996 5.50083 -30.2719 6.6709 -20.1162C7.75973 -10.6644 8.86112 -1.45914 8.77318 8.61961C8.67016 20.4877 9.02446 35.1257 6.12704 42.2234C3.21009 49.3734 -0.912954 40.842 -4.56278 41.3067C-7.86557 41.7284 -11.4322 50.9208 -14.1727 44.8194C-16.9422 38.6549 -15.6245 24.1889 -16.8387 13.98C-17.9588 4.56488 -21.261 -2.28877 -20.9706 -12.3281C-20.6775 -22.5141 -17.7678 -29.36 -15.3986 -36.0003C-13.0858 -42.4811 -10.5441 -47.8178 -7.56266 -49.9097C-4.29867 -52.1903 -0.612265 -54.2595 2.21172 -48.3498Z" stroke="white"/>
<path opacity="0.2" fill-rule="evenodd" clip-rule="evenodd" d="M3.40506 -56.5215C6.67156 -49.684 7.24864 -35.4016 8.61582 -23.5353C9.88836 -12.4932 11.176 -1.74185 11.0727 10.03C10.9526 23.8909 11.3658 40.9898 7.98262 49.281C4.57653 57.6291 -0.241693 47.6619 -4.50545 48.2055C-8.3641 48.6968 -12.5304 59.4293 -15.7324 52.3032C-18.9685 45.1009 -17.4291 28.2042 -18.8487 16.2784C-20.1578 5.27835 -24.0159 -2.72506 -23.6787 -14.4492C-23.3367 -26.3466 -19.9376 -34.3411 -17.1705 -42.0951C-14.4691 -49.665 -11.4999 -55.8948 -8.01679 -58.3387C-4.20085 -61.0117 0.1059 -63.424 3.40506 -56.5215Z" stroke="white"/>
<path opacity="0.2" fill-rule="evenodd" clip-rule="evenodd" d="M4.70689 -65.4342C8.48793 -57.5252 9.15547 -40.9989 10.7373 -27.269C12.2101 -14.4925 13.7006 -2.05138 13.5831 11.5675C13.4435 27.6046 13.9234 47.386 10.0095 56.9743C6.06736 66.6323 0.492827 55.098 -4.44098 55.7269C-8.90575 56.2925 -13.7262 68.7096 -17.4316 60.4624C-21.1763 52.129 -19.396 32.5809 -21.0393 18.7814C-22.5547 6.05711 -27.0192 -3.20829 -26.63 -16.7695C-26.2347 -30.5369 -22.3026 -39.7779 -19.1006 -48.753C-15.9737 -57.509 -12.5397 -64.7159 -8.50931 -67.5393C-4.09451 -70.6339 0.888712 -73.423 4.70689 -65.4342Z" stroke="white"/>
<path opacity="0.2" fill-rule="evenodd" clip-rule="evenodd" d="M5.9724 -74.1026C10.2529 -65.1468 11.009 -46.4414 12.8011 -30.9002C14.4689 -16.4389 16.1566 -2.35614 16.024 13.0604C15.8677 31.2104 16.4101 53.6021 11.9802 64.4555C7.51771 75.3849 1.20695 62.3258 -4.3782 63.0344C-9.4315 63.676 -14.8888 77.7269 -19.0836 68.3916C-23.3231 58.9563 -21.3082 36.8305 -23.1689 21.2114C-24.8848 6.8097 -29.939 -3.67963 -29.499 -19.0301C-29.0523 -34.6135 -24.6012 -45.0734 -20.9768 -55.2273C-17.4389 -65.1383 -13.5504 -73.2942 -8.98788 -76.4887C-3.99098 -79.9886 1.65001 -83.1455 5.9724 -74.1026Z" stroke="white"/>
<path opacity="0.2" fill-rule="evenodd" clip-rule="evenodd" d="M7.12968 -82.0269C11.8669 -72.1178 12.7039 -51.4195 14.6876 -34.2247C16.5333 -18.2215 18.4008 -2.64006 18.2548 14.4191C18.0822 34.5033 18.683 59.2817 13.781 71.2891C8.84277 83.3836 1.85973 68.9326 -4.32177 69.7154C-9.91474 70.4212 -15.9525 85.9706 -20.5948 75.6379C-25.2852 65.1953 -23.0572 40.7128 -25.1176 23.4318C-27.0161 7.4928 -32.6102 -4.11411 -32.1233 -21.0999C-31.6291 -38.3415 -26.704 -49.9171 -22.6932 -61.1517C-18.7784 -72.1169 -14.4753 -81.1352 -9.42672 -84.6735C-3.89629 -88.5428 2.34524 -92.0333 7.12968 -82.0269Z" stroke="white"/>
<path opacity="0.2" fill-rule="evenodd" clip-rule="evenodd" d="M8.35925 -90.4451C13.5817 -79.5193 14.5047 -56.706 16.6919 -37.7484C18.7272 -20.1062 20.7865 -2.93064 20.6251 15.8766C20.4355 38.0123 21.0997 65.3251 15.6944 78.56C10.2502 91.8901 2.55215 75.9604 -4.26115 76.8184C-10.4267 77.5985 -17.082 94.7348 -22.2001 83.3443C-27.3723 71.8328 -24.9155 44.844 -27.1861 25.7975C-29.28 8.22956 -35.4462 -4.56602 -34.9098 -23.2899C-34.3654 -42.296 -28.9352 -55.0543 -24.5151 -67.4385C-20.1997 -79.5256 -15.4563 -89.4703 -9.89098 -93.3643C-3.79519 -97.6295 3.08595 -101.478 8.35925 -90.4451Z" stroke="white"/>
<path opacity="0.2" fill-rule="evenodd" clip-rule="evenodd" d="M9.69651 -99.6057C15.4478 -87.5735 16.464 -62.458 18.8723 -41.5809C21.1133 -22.1595 23.3812 -3.24781 23.2042 17.4524C22.9956 41.8256 23.726 71.8969 17.7762 86.4673C11.7832 101.143 3.30562 83.6039 -4.19587 84.549C-10.9846 85.4042 -18.3124 104.272 -23.9476 91.7292C-29.643 79.0554 -26.938 49.3461 -29.4384 28.3691C-31.7442 9.02744 -38.5337 -5.06534 -37.9435 -25.6784C-37.3444 -46.6013 -31.3667 -60.6483 -26.4991 -74.281C-21.7479 -87.5882 -16.5254 -98.5353 -10.3975 -102.823C-3.68636 -107.52 3.88941 -111.757 9.69651 -99.6057Z" stroke="white"/>
</g>
</g>
<g filter="url(#filter0_d_2_973)">
<path d="M36 30.5C36 23.5964 41.5964 18 48.5 18C55.4036 18 61 23.5964 61 30.5C61 37.4036 55.4036 43 48.5 43C41.5964 43 36 37.4036 36 30.5Z" fill="white"/>
</g>
<path d="M49 35.1293C48.3045 35.1293 47.712 34.94 47.2227 34.5614C46.7333 34.1798 46.3594 33.6274 46.1009 32.9041C45.8423 32.1778 45.7131 31.3007 45.7131 30.2727C45.7131 29.2509 45.8423 28.3784 46.1009 27.6552C46.3625 26.9289 46.7379 26.3749 47.2273 25.9933C47.7197 25.6085 48.3106 25.4162 49 25.4162C49.6894 25.4162 50.2788 25.6085 50.7681 25.9933C51.2605 26.3749 51.636 26.9289 51.8945 27.6552C52.1561 28.3784 52.2869 29.2509 52.2869 30.2727C52.2869 31.3007 52.1577 32.1778 51.8991 32.9041C51.6406 33.6274 51.2667 34.1798 50.7773 34.5614C50.288 34.94 49.6955 35.1293 49 35.1293ZM49 34.1136C49.6894 34.1136 50.2249 33.7812 50.6065 33.1165C50.9882 32.4517 51.179 31.5038 51.179 30.2727C51.179 29.4541 51.0913 28.757 50.9158 28.1815C50.7435 27.6059 50.4942 27.1674 50.168 26.8658C49.8448 26.5642 49.4555 26.4134 49 26.4134C48.3168 26.4134 47.7828 26.7504 47.3981 27.4244C47.0134 28.0953 46.821 29.0447 46.821 30.2727C46.821 31.0914 46.9072 31.7869 47.0795 32.3594C47.2519 32.9318 47.4996 33.3673 47.8228 33.6658C48.149 33.9644 48.5414 34.1136 49 34.1136Z" fill="#35B8BE"/>
<g clip-path="url(#clip1_2_973)">
<path d="M16.8322 45H13V43H19.4619L20.1219 47H36.5294V52.9384L18.5432 55.3694L16.8322 45ZM35.7941 60C34.5758 60 33.5882 59.3284 33.5882 58.5C33.5882 57.6716 34.5758 57 35.7941 57C37.0124 57 38 57.6716 38 58.5C38 59.3284 37.0124 60 35.7941 60ZM21.0882 60C19.87 60 18.8824 59.3284 18.8824 58.5C18.8824 57.6716 19.87 57 21.0882 57C22.3065 57 23.2941 57.6716 23.2941 58.5C23.2941 59.3284 22.3065 60 21.0882 60Z" fill="white"/>
</g>
<defs>
<filter id="filter0_d_2_973" x="18" y="0" width="75" height="75" filterUnits="userSpaceOnUse" color-interpolation-filters="sRGB">
<feFlood flood-opacity="0" result="BackgroundImageFix"/>
<feColorMatrix in="SourceAlpha" type="matrix" values="0 0 0 0 0 0 0 0 0 0 0 0 0 0 0 0 0 0 127 0" result="hardAlpha"/>
<feOffset dx="7" dy="7"/>
<feGaussianBlur stdDeviation="12.5"/>
<feColorMatrix type="matrix" values="0 0 0 0 0.494118 0 0 0 0 0.509804 0 0 0 0 0.560784 0 0 0 0.27 0"/>
<feBlend mode="normal" in2="BackgroundImageFix" result="effect1_dropShadow_2_973"/>
<feBlend mode="normal" in="SourceGraphic" in2="effect1_dropShadow_2_973" result="shape"/>
</filter>
<clipPath id="clip0_2_973">
<path d="M0 28C0 25.7909 1.79086 24 4 24H51C53.2091 24 55 25.7909 55 28V75C55 77.2091 53.2091 79 51 79H4C1.79086 79 0 77.2091 0 75V28Z" fill="white"/>
</clipPath>
<clipPath id="clip1_2_973">
<rect width="25" height="17" fill="white" transform="translate(13 43)"/>
</clipPath>
</defs>
</svg>
