<svg width="110" height="27" viewBox="0 0 110 27" fill="none" xmlns="http://www.w3.org/2000/svg">
<g clip-path="url(#clip0_2_1023)">
<path d="M28.9109 9.5678H40.0396V11.6391H35.6531V23.315H33.2515V11.6391H28.893L28.9109 9.5678ZM39.5621 13.3624H41.6157V15.2871H41.6526C41.7317 15.0031 41.8621 14.7359 42.0374 14.4987C42.2246 14.2313 42.4535 13.9958 42.7154 13.801C42.9773 13.5809 43.2751 13.4073 43.5956 13.2877C43.9036 13.1585 44.2337 13.0908 44.5676 13.0883C44.8239 13.0883 45.0073 13.1063 45.099 13.1063C45.1954 13.1275 45.2935 13.1399 45.3921 13.1431V15.2493C45.235 15.2144 45.0758 15.1897 44.9156 15.1755C44.7576 15.1541 44.5985 15.1418 44.439 15.1386C44.0791 15.1373 43.723 15.2124 43.3943 15.3589C43.0663 15.5118 42.7732 15.7303 42.5329 16.0008C42.2766 16.3182 42.0782 16.6782 41.9467 17.0644C41.7924 17.5375 41.718 18.033 41.7264 18.5306V23.2602H39.5262L39.5621 13.3624ZM55.475 23.316H53.3177V21.9205H53.2808C53.0002 22.4304 52.5805 22.85 52.0705 23.1306C51.5778 23.4278 51.014 23.5862 50.4386 23.5891C49.923 23.6391 49.4028 23.5782 48.9127 23.4106C48.4227 23.243 47.9742 22.9725 47.5973 22.6173C46.9497 21.7831 46.6359 20.7377 46.717 19.6848V13.3604H48.9172V19.4645C48.846 20.1244 49.0296 20.7866 49.4307 21.3155C49.6122 21.5037 49.8325 21.6504 50.0762 21.7454C50.3198 21.8404 50.5812 21.8814 50.8423 21.8657C51.239 21.8779 51.6334 21.8027 51.9978 21.6454C52.2901 21.5188 52.5479 21.324 52.7494 21.0773C52.9508 20.8242 53.0947 20.5303 53.1711 20.2161C53.2623 19.863 53.3055 19.4992 53.2997 19.1346V13.3604H55.5V23.314L55.475 23.316ZM59.2155 20.1264C59.2246 20.3938 59.2955 20.6555 59.4228 20.8909C59.5502 21.1263 59.7304 21.329 59.9492 21.4829C60.4112 21.749 60.9377 21.8821 61.4706 21.8677C61.7042 21.8656 61.9373 21.8473 62.1684 21.8129C62.4196 21.7822 62.6661 21.7206 62.9021 21.6295C63.1244 21.551 63.321 21.4131 63.4704 21.2308C63.6226 21.0394 63.6941 20.7963 63.6698 20.553C63.6668 20.4218 63.6376 20.2925 63.5841 20.1727C63.5305 20.0529 63.4535 19.945 63.3577 19.8553C63.1391 19.6692 62.8912 19.5206 62.624 19.4157C62.29 19.2955 61.9465 19.2035 61.5972 19.1406C61.2123 19.0668 60.8275 18.9761 60.4238 18.8844C60.02 18.7927 59.6173 18.6851 59.2275 18.5545C58.8575 18.4371 58.5102 18.2574 58.2006 18.0232C57.897 17.8049 57.6515 17.5153 57.4858 17.18C57.2904 16.7878 57.1958 16.353 57.2107 15.9151C57.1882 15.431 57.3286 14.9534 57.6095 14.5585C57.8729 14.1912 58.2179 13.8899 58.6173 13.6784C59.0417 13.4491 59.4996 13.2883 59.9742 13.202C60.4398 13.1162 60.9123 13.0731 61.3858 13.0734C61.8794 13.071 62.3716 13.1265 62.8523 13.2388C63.3034 13.3357 63.7324 13.5158 64.1174 13.7701C64.4989 14.0108 64.8191 14.3371 65.0525 14.723C65.3168 15.151 65.4798 15.6338 65.529 16.1344H63.2361C63.2093 15.9133 63.1306 15.7017 63.0064 15.5169C62.8821 15.332 62.7159 15.1792 62.5213 15.0709C62.1139 14.8813 61.6686 14.7872 61.2193 14.7958C61.0728 14.7958 60.8714 14.8137 60.669 14.8326C60.4631 14.8619 60.2604 14.911 60.0639 14.9792C59.8858 15.0502 59.7237 15.1563 59.5874 15.2911C59.5205 15.362 59.4684 15.4455 59.4342 15.5367C59.4 15.6279 59.3843 15.7251 59.388 15.8224C59.3827 15.9432 59.4047 16.0636 59.4523 16.1747C59.5 16.2858 59.572 16.3848 59.6631 16.4643C59.8819 16.6456 60.13 16.7882 60.3969 16.8859C60.7309 17.0061 61.0743 17.0981 61.4237 17.161C61.8085 17.2348 62.2123 17.3265 62.62 17.4172C63.0278 17.5079 63.4086 17.6166 63.7934 17.7471C64.165 17.8607 64.5129 18.0407 64.8202 18.2784C65.1202 18.4988 65.3702 18.78 65.554 19.1037C65.7475 19.4834 65.8421 19.9057 65.8291 20.3317C65.8482 20.8612 65.7094 21.3844 65.4304 21.8348C65.158 22.2414 64.8018 22.585 64.3856 22.8425C63.9399 23.1019 63.4581 23.2934 62.956 23.4107C62.4442 23.5249 61.9221 23.5863 61.3978 23.5941C60.81 23.5989 60.2242 23.5248 59.6561 23.3738C59.1571 23.2426 58.6848 23.0254 58.2604 22.7319C57.875 22.4476 57.5613 22.0773 57.3443 21.6504C57.107 21.1714 56.9816 20.6449 56.9774 20.1104H59.1996V20.1284L59.2155 20.1264ZM66.4572 13.3624H68.125V10.3562H70.3253V13.3465H72.3052V14.9781H70.3253V20.2938C70.3267 20.496 70.339 20.698 70.3622 20.8989C70.3801 21.0458 70.4237 21.1885 70.4908 21.3205C70.5681 21.434 70.6764 21.5229 70.8028 21.5766C70.991 21.6427 71.1896 21.6738 71.389 21.6684C71.5421 21.6715 71.6952 21.6655 71.8476 21.6504C72.0017 21.6348 72.1549 21.6102 72.3062 21.5766V23.2811C72.0679 23.318 71.8296 23.3359 71.5914 23.3549C71.3544 23.3859 71.1154 23.3982 70.8766 23.3917C70.4057 23.4063 69.9353 23.3505 69.4809 23.2263C69.1714 23.1362 68.8882 22.9728 68.6554 22.7498C68.4555 22.5266 68.318 22.2547 68.2566 21.9614C68.1816 21.6004 68.1385 21.2335 68.128 20.865V14.9991H66.4602V13.3674L66.4572 13.3624ZM73.8454 13.3624H75.917V14.719H75.9539C76.2289 14.1708 76.681 13.7314 77.237 13.4721C77.799 13.2118 78.4121 13.0803 79.0314 13.0873C79.7396 13.0649 80.4431 13.2093 81.0851 13.5089C81.6527 13.7651 82.1497 14.155 82.5336 14.6452C82.9313 15.1438 83.2243 15.7174 83.395 16.3317C83.7733 17.6352 83.7861 19.0175 83.4319 20.3277C83.2668 20.9247 83 21.4888 82.6433 21.9953C82.2917 22.4777 81.8339 22.8729 81.3054 23.1505C80.7166 23.4544 80.0608 23.6056 79.3983 23.5901C79.0786 23.5868 78.7597 23.5561 78.4452 23.4984C78.1301 23.4431 77.8225 23.3508 77.5291 23.2233C77.2376 23.097 76.9659 22.9291 76.7225 22.7249C76.4771 22.529 76.2664 22.2932 76.0995 22.0272H76.0626V26.995H73.8644V13.3624H73.8454ZM81.5267 18.3462C81.5302 17.9056 81.4683 17.4669 81.3433 17.0444C81.2379 16.6416 81.0577 16.2622 80.812 15.9261C80.5806 15.6082 80.2877 15.3401 79.9506 15.1376C79.5851 14.9352 79.1721 14.834 78.7543 14.8446C78.3538 14.8186 77.9531 14.892 77.5878 15.0582C77.2226 15.2245 76.9041 15.4784 76.6607 15.7975C76.1653 16.559 75.9212 17.4566 75.9629 18.3641C75.9543 18.8358 76.0162 19.3061 76.1463 19.7596C76.255 20.158 76.442 20.5308 76.6966 20.856C76.9323 21.1625 77.2329 21.413 77.5769 21.5896C77.9464 21.7799 78.3577 21.8745 78.7732 21.8647C79.2154 21.8773 79.6527 21.7695 80.0383 21.5527C80.375 21.3498 80.6679 21.0818 80.8997 20.7643C81.128 20.4251 81.2897 20.0456 81.3762 19.6459C81.4726 19.2199 81.5244 18.785 81.5307 18.3482L81.5267 18.3462ZM85.3948 9.5658H87.595V11.637H85.3948V9.5658ZM85.3948 13.3604H87.595V23.314H85.3948V13.3604ZM89.556 9.5658H91.7562V23.313H89.556V9.5658ZM98.4655 23.5881C97.7367 23.6046 97.0124 23.4688 96.3391 23.1894C95.7465 22.9377 95.2103 22.57 94.762 22.1079C94.3263 21.6251 93.9953 21.0574 93.79 20.4404C93.5588 19.7616 93.4412 19.0493 93.442 18.3322C93.4317 17.6193 93.5496 16.9103 93.79 16.2391C93.9996 15.624 94.33 15.057 94.762 14.5715C95.202 14.0997 95.7404 13.7305 96.3391 13.49C97.015 13.2193 97.7375 13.0838 98.4655 13.0913C99.1944 13.0748 99.9186 13.2106 100.592 13.49C101.188 13.7351 101.726 14.1037 102.169 14.5715C102.605 15.0543 102.936 15.6221 103.141 16.2391C103.373 16.9126 103.49 17.62 103.489 18.3322C103.5 19.0501 103.383 19.7642 103.141 20.4404C102.924 21.0521 102.595 21.6177 102.169 22.1079C101.729 22.5798 101.191 22.949 100.592 23.1894C99.9174 23.4623 99.1952 23.5985 98.4675 23.5901L98.4655 23.5881ZM98.4655 21.8468C98.9072 21.8548 99.3433 21.7472 99.7307 21.5348C100.082 21.3363 100.383 21.0606 100.611 20.7284C100.848 20.3893 101.022 20.0105 101.124 19.6101C101.344 18.7751 101.344 17.8973 101.124 17.0624C101.025 16.6606 100.851 16.2812 100.611 15.944C100.377 15.6213 100.077 15.3524 99.7307 15.1556C99.3425 14.9453 98.907 14.8379 98.4655 14.8436C98.0239 14.8357 97.5878 14.9432 97.2004 15.1556C96.8544 15.353 96.5543 15.6217 96.3202 15.944C96.0802 16.2812 95.906 16.6606 95.8067 17.0624C95.5867 17.8973 95.5867 18.7751 95.8067 19.6101C95.906 20.0118 96.0802 20.3912 96.3202 20.7284C96.5532 21.0565 96.8533 21.3313 97.2004 21.5348C97.5857 21.7545 98.0243 21.8631 98.4675 21.8488L98.4655 21.8468ZM104.148 13.3604H105.816V10.3542H108.016V13.3445H109.996V14.9762H108.019V20.2919C108.021 20.494 108.033 20.696 108.056 20.8969C108.074 21.0438 108.117 21.1865 108.185 21.3185C108.262 21.4321 108.37 21.521 108.497 21.5747C108.685 21.6407 108.883 21.6718 109.083 21.6664C109.236 21.6696 109.389 21.6636 109.541 21.6484C109.696 21.6328 109.849 21.6082 110 21.5747V23.2791C109.762 23.316 109.523 23.3339 109.285 23.3529C109.048 23.3839 108.809 23.3962 108.57 23.3897C108.1 23.4043 107.629 23.3485 107.175 23.2243C106.865 23.1342 106.582 22.9708 106.349 22.7478C106.149 22.5246 106.012 22.2527 105.95 21.9594C105.875 21.5984 105.832 21.2315 105.822 20.863V14.9971H104.151V13.3654L104.148 13.3604Z" fill="black"/>
<path d="M26.3448 9.56882H16.2798L13.1814 0L10.069 9.56882L0 9.55087L8.13992 15.4716L5.02352 25.0404L13.1634 19.1197L21.3033 25.0404L18.2049 15.4716L26.3448 9.56882Z" fill="#00B67A"/>
<path d="M18.9018 17.6335L18.2039 15.4706L13.1814 19.1187L18.9018 17.6335Z" fill="#005128"/>
</g>
<defs>
<clipPath id="clip0_2_1023">
<rect width="110" height="27" fill="white"/>
</clipPath>
</defs>
</svg>
